<svg xmlns="http://www.w3.org/2000/svg" width="1892" height="506" viewBox="0 0 1892 506">
  <defs>
    <style>
      .cls-1, .cls-2 {
        fill-rule: evenodd;
      }

      .cls-2 {
        fill: #020202;
      }
    </style>
  </defs>
  <path id="Shape_783_1" data-name="Shape 783 1" class="cls-1" d="M17.864,328.48l84.6-85.773V103.183l44.588-44.6L88.747,0.256,17.864,71.162V328.48Zm13.719,11.437,57.164-56.039s4.217-.356,5.716,1.144c1.351,1.351,1.143,4.574,1.143,4.574L38.443,347.922s-4.024-.876-5.716-2.287C30.99,344.187,31.584,339.917,31.584,339.917ZM20.151,398.242l60.593-60.613s3.178,0.892,4.573,2.288a4.251,4.251,0,0,1,1.143,3.43L24.724,403.96a9.7,9.7,0,0,1-3.43-2.287A5.938,5.938,0,0,1,20.151,398.242Zm54.877-9.149,62.88-61.757s3.357,0.385,4.126,1.88c0.671,1.3,1.608,2.693,1.59,2.695l-62.88,61.757a6.6,6.6,0,0,1-3.43-1.144A8.789,8.789,0,0,1,75.028,389.093Zm21.722,18.3h118.9l81.172-81.2V210.685l-70.883-70.9-72.026,72.049h26.3l32.011,32.022v48.033ZM84.174,422.258H221.366l75.456-75.48V464.573l-41.158,41.171H-0.428Z"/>
  <path id="buyanything" class="cls-2" d="M406.455,254.489V190.183H374.426v173.8h32.029V349.334q14.152,18.127,40.223,18.125,25.074,0,42.829-18.994t17.752-46.554q0-27.56-17.752-46.553t-42.829-18.994q-26.07,0-40.223,18.125h0Zm0,47.422q0-15.392,9.683-25.2t24.581-9.807q14.9,0,24.7,9.807t9.808,25.2q0,15.4-9.808,25.2t-24.7,9.808q-14.9,0-24.581-9.808T406.455,301.911Zm215.264,4.966q0,15.4-7.448,23.091t-19.863,7.7q-11.174,0-17.877-6.58t-6.7-18.994V239.84H537.8v76.224q0,24.085,13.283,37.739t33.643,13.656q25.324,0,36.994-17.38v13.9h32.029V239.84H621.719v67.037Zm124.737,16.4-32.374-83.44H679.074l50.9,120.17q-4.468,12.663-12.042,18.374t-20.483,5.462V413.64q23.8,1.24,39.8-10.812t25.675-38.643L808.183,239.84H773.919Zm176.187-68.791q-14.4-18.122-40.471-18.125-24.831,0-42.581,18.994t-17.753,46.553q0,27.561,17.753,46.554t42.581,18.994q26.07,0,40.471-18.125v14.649h32.029V239.84H922.643v14.649Zm-68.776,47.422q0-15.392,9.683-25.2t24.581-9.807q14.9,0,24.7,9.807t9.808,25.2q0,15.4-9.808,25.2t-24.7,9.808q-14.9,0-24.581-9.808T853.867,301.911Zm171.813-48.167v-13.9H993.652V363.983h32.028V296.946q0-15.393,7.45-23.091t19.86-7.7q11.175,0,17.88,6.58t6.7,18.994v72.251h32.03V287.759q0-24.079-13.28-37.739t-33.64-13.656q-25.335,0-37,17.38h0Zm171.91,69.536-32.37-83.44h-35.01l50.9,120.17q-4.47,12.663-12.04,18.374t-20.49,5.462V413.64q23.805,1.24,39.8-10.812t25.68-38.643l45.26-124.345h-34.26Zm157.82-83.44h-28.06V205.08l-32.03,9.683V239.84h-21.6v30.787h21.6v51.644q0,25.575,13.53,35.5t46.56,6.207v-29.05a138.511,138.511,0,0,1-15.4.125q-6.21-.373-9.43-3.352-3.24-2.981-3.23-9.435V270.627h28.06V239.84Zm64.55,13.9V190.183h-32.03v173.8h32.03V296.946q0-15.393,7.45-23.091t19.86-7.7q11.175,0,17.88,6.58t6.7,18.994v72.251h32.03V287.759q0-24.079-13.28-37.739t-33.65-13.656q-25.32,0-36.99,17.38h0Zm151.08-34.636a18.84,18.84,0,0,0,5.84-13.78,19.262,19.262,0,0,0-5.84-13.9,18.92,18.92,0,0,0-14.03-5.959,18.647,18.647,0,0,0-13.78,5.959,19.252,19.252,0,0,0-5.83,13.9,19.921,19.921,0,0,0,19.61,19.615A19.114,19.114,0,0,0,1571.04,219.108Zm2.11,144.875V239.84h-32.03V363.983h32.03Zm71.26-110.239v-13.9h-32.03V363.983h32.03V296.946q0-15.393,7.45-23.091t19.86-7.7q11.175,0,17.88,6.58t6.7,18.994v72.251h32.03V287.759q0-24.079-13.28-37.739t-33.64-13.656q-25.335,0-37,17.38h0Zm216.26,1.49q-14.16-18.867-39.73-18.87-26.07,0-43.94,18.621t-17.88,44.94q0,26.571,17.75,45.064t44.07,18.5q25.575,0,39.73-18.869v13.407q0,14.647-8.69,22.594t-23.84,7.945q-23.085,0-32.52-17.38l-27.31,15.642a53.794,53.794,0,0,0,23.46,22.594q15.27,7.694,35.38,7.7,26.82,0,45.81-15.145t18.99-43.947V239.84h-31.28v15.394Zm-69.52,44.691q0-14.647,9.81-24.208t24.95-9.559q15.135,0,24.95,9.559t9.81,24.208q0,14.9-9.81,24.456t-24.95,9.559q-15.15,0-24.95-9.559-9.825-9.555-9.81-24.456h0Z"/>
</svg>
